<svg width="24" height="24" viewBox="0 0 24 24" fill="none" xmlns="http://www.w3.org/2000/svg">
<path d="M11.555 17.4876C11.341 17.486 11.1363 17.4003 10.985 17.249C10.8337 17.0977 10.748 16.893 10.7464 16.679C10.7458 16.626 10.7512 16.5731 10.7626 16.5213C10.7712 16.4685 10.7861 16.4169 10.807 16.3677C10.8287 16.3197 10.8544 16.2736 10.8839 16.2298C10.944 16.1431 11.0194 16.0679 11.1062 16.0079C11.1487 15.9767 11.1949 15.9509 11.2437 15.9311C11.293 15.9105 11.3446 15.8956 11.3973 15.8866C11.5275 15.8609 11.6621 15.8677 11.789 15.9065C11.916 15.9453 12.0314 16.0148 12.125 16.109C12.1641 16.1445 12.1981 16.1853 12.2261 16.2302C12.2555 16.274 12.2812 16.3201 12.3029 16.3681C12.3239 16.4173 12.3388 16.4689 12.3474 16.5217C12.3587 16.5735 12.3642 16.6264 12.3635 16.6794C12.362 16.8934 12.2763 17.0981 12.125 17.2494C11.9737 17.4007 11.7689 17.486 11.555 17.4876ZM8.60369 8.74914C8.50323 8.74869 8.40446 8.72328 8.31624 8.67521C8.22803 8.62714 8.15314 8.5579 8.09831 8.47373C8.04347 8.38955 8.01041 8.29307 8.00208 8.19295C7.99376 8.09283 8.01045 7.99222 8.05063 7.90014C8.085 7.82252 8.92348 6 11.5554 6C11.7162 6 11.8705 6.06389 11.9842 6.17762C12.0979 6.29135 12.1618 6.44559 12.1618 6.60643C12.1618 6.76726 12.0979 6.92151 11.9842 7.03524C11.8705 7.14897 11.7162 7.21286 11.5554 7.21286C9.73973 7.21286 9.17939 8.35092 9.15635 8.39943C9.10669 8.50399 9.02842 8.59233 8.9306 8.65422C8.83279 8.71612 8.71944 8.74903 8.60369 8.74914Z" fill="#0C0C0C"/>
<path d="M11.5569 14.0331C11.3961 14.0331 11.2419 13.9693 11.1281 13.8555C11.0144 13.7418 10.9505 13.5876 10.9505 13.4267V12.6618C10.9505 11.7275 11.7631 11.2116 12.5487 10.7132C13.6625 10.0057 14.3275 9.51243 13.9455 8.3776C13.8727 8.23731 13.28 7.21286 11.5569 7.21286C11.3961 7.21286 11.2419 7.14896 11.1281 7.03524C11.0144 6.92151 10.9505 6.76726 10.9505 6.60643C10.9505 6.44559 11.0144 6.29135 11.1281 6.17762C11.2419 6.06389 11.3961 6 11.5569 6C14.1888 6 15.0273 7.82333 15.0617 7.90014C15.0686 7.9151 15.0742 7.93006 15.0795 7.94502C15.825 10.0691 14.2442 11.0722 13.1988 11.736C12.7136 12.0441 12.1634 12.3934 12.1634 12.661V13.4267C12.1634 13.5876 12.0995 13.7418 11.9858 13.8555C11.872 13.9693 11.7178 14.0331 11.5569 14.0331Z" fill="#0C0C0C"/>
<path d="M11.555 17.4876C11.341 17.486 11.1363 17.4003 10.985 17.249C10.8337 17.0977 10.748 16.893 10.7464 16.679C10.7458 16.626 10.7512 16.5731 10.7626 16.5213C10.7712 16.4685 10.7861 16.4169 10.807 16.3677C10.8287 16.3197 10.8544 16.2736 10.8839 16.2298C10.944 16.1431 11.0194 16.0679 11.1062 16.0079C11.1487 15.9767 11.1949 15.9509 11.2437 15.9311C11.293 15.9105 11.3446 15.8956 11.3973 15.8866C11.5275 15.8609 11.6621 15.8677 11.789 15.9065C11.916 15.9453 12.0314 16.0148 12.125 16.109C12.1641 16.1445 12.1981 16.1853 12.2261 16.2302C12.2555 16.274 12.2812 16.3201 12.3029 16.3681C12.3239 16.4173 12.3388 16.4689 12.3474 16.5217C12.3587 16.5735 12.3642 16.6264 12.3635 16.6794C12.362 16.8934 12.2763 17.0981 12.125 17.2494C11.9737 17.4007 11.7689 17.486 11.555 17.4876ZM8.60369 8.74914C8.50323 8.74869 8.40446 8.72328 8.31624 8.67521C8.22803 8.62714 8.15314 8.5579 8.09831 8.47373C8.04347 8.38955 8.01041 8.29307 8.00208 8.19295C7.99376 8.09283 8.01045 7.99222 8.05063 7.90014C8.085 7.82252 8.92348 6 11.5554 6C11.7162 6 11.8705 6.06389 11.9842 6.17762C12.0979 6.29135 12.1618 6.44559 12.1618 6.60643C12.1618 6.76726 12.0979 6.92151 11.9842 7.03524C11.8705 7.14897 11.7162 7.21286 11.5554 7.21286C9.73973 7.21286 9.17939 8.35092 9.15635 8.39943C9.10669 8.50399 9.02842 8.59233 8.9306 8.65422C8.83279 8.71612 8.71944 8.74903 8.60369 8.74914Z" stroke="#0C0C0C" stroke-width="0.5"/>
<path d="M11.5569 14.0331C11.3961 14.0331 11.2419 13.9693 11.1281 13.8555C11.0144 13.7418 10.9505 13.5876 10.9505 13.4267V12.6618C10.9505 11.7275 11.7631 11.2116 12.5487 10.7132C13.6625 10.0057 14.3275 9.51243 13.9455 8.3776C13.8727 8.23731 13.28 7.21286 11.5569 7.21286C11.3961 7.21286 11.2419 7.14896 11.1281 7.03524C11.0144 6.92151 10.9505 6.76726 10.9505 6.60643C10.9505 6.44559 11.0144 6.29135 11.1281 6.17762C11.2419 6.06389 11.3961 6 11.5569 6C14.1888 6 15.0273 7.82333 15.0617 7.90014C15.0686 7.9151 15.0742 7.93006 15.0795 7.94502C15.825 10.0691 14.2442 11.0722 13.1988 11.736C12.7136 12.0441 12.1634 12.3934 12.1634 12.661V13.4267C12.1634 13.5876 12.0995 13.7418 11.9858 13.8555C11.872 13.9693 11.7178 14.0331 11.5569 14.0331Z" stroke="#0C0C0C" stroke-width="0.5"/>
<path d="M10.1953 2.92773C11.9896 2.57085 13.8498 2.75398 15.54 3.4541C17.2302 4.15423 18.675 5.34021 19.6914 6.86133C20.7076 8.3824 21.25 10.1707 21.25 12C21.2469 14.4523 20.2712 16.8031 18.5371 18.5371C16.8028 20.2713 14.4516 21.2462 11.999 21.249C10.1698 21.2488 8.38129 20.7068 6.86035 19.6904C5.3396 18.6741 4.15411 17.2299 3.4541 15.54C2.75407 13.8499 2.57081 11.9896 2.92773 10.1953C3.28468 8.40107 4.16541 6.75256 5.45898 5.45898C6.75258 4.16544 8.40109 3.28465 10.1953 2.92773Z" stroke="#0C0C0C" stroke-width="1.5"/>
</svg>
